<?xml version="1.0" encoding="utf-8"?>
<!-- Generated by Mocodo 4.2.11 -->
<svg width="713" height="276" viewBox="0 0 713 276" xmlns="http://www.w3.org/2000/svg">
<rect x="0" y="0" width="713" height="276" fill="#FFFFFF" stroke="none" stroke-width="0"/>

<!-- Association DIRIGER -->
<g>
	<line x1="229" y1="138" x2="229" y2="44" stroke="#000000" stroke-width="1"/>
	<line x1="366" y1="138" x2="229" y2="44" stroke="#000000" stroke-width="1"/>
	<g>
		<path d="M252 18 a14 14 90 0 1 14 14 V44 h-74 V32 a14 14 90 0 1 14 -14" fill="#FFFFFF" stroke="#FFFFFF" stroke-width="0"/>
		<path d="M266 44 v12 a14 14 90 0 1 -14 14 H206 a14 14 90 0 1 -14 -14 V44 H74" fill="#FFFFFF" stroke="#FFFFFF" stroke-width="0"/>
		<rect x="192" y="18" width="74" height="52" fill="none" rx="14" stroke="#000000" stroke-width="1.5"/>
		<line x1="192" y1="44" x2="266" y2="44" stroke="#000000" stroke-width="1"/>
		<text x="199" y="36.6" fill="#000000" font-family="Courier New" font-size="14">DIRIGER</text>
	</g>
	<text x="234" y="95" fill="#000000" font-family="Courier New" font-size="12">0,N</text>
	<text x="314.75" y="95" fill="#000000" font-family="Courier New" font-size="12">0,1</text>
</g>

<!-- Association REQUERIR -->
<g>
	<line x1="366" y1="138" x2="366" y2="44" stroke="#000000" stroke-width="1"/>
	<line x1="514" y1="44" x2="366" y2="44" stroke="#000000" stroke-width="1"/>
	<g>
		<path d="M406 18 a14 14 90 0 1 14 14 V44 h-108 V32 a14 14 90 0 1 14 -14" fill="#FFFFFF" stroke="#FFFFFF" stroke-width="0"/>
		<path d="M420 44 v12 a14 14 90 0 1 -14 14 H326 a14 14 90 0 1 -14 -14 V44 H108" fill="#FFFFFF" stroke="#FFFFFF" stroke-width="0"/>
		<rect x="312" y="18" width="108" height="52" fill="none" rx="14" stroke="#000000" stroke-width="1.5"/>
		<line x1="312" y1="44" x2="420" y2="44" stroke="#000000" stroke-width="1"/>
		<text x="332" y="36.6" fill="#000000" font-family="Courier New" font-size="14">REQUÉRIR</text>
		<text x="319" y="62.6" fill="#000000" font-family="Courier New" font-size="14">qté requise</text>
	</g>
	<text x="371" y="95" fill="#000000" font-family="Courier New" font-size="12">1,N</text>
	<text x="426" y="60" fill="#000000" font-family="Courier New" font-size="12">0,N</text>
</g>

<!-- Association COMPOSER -->
<g>
	<path d="M514 44 C568 12 616 12 658 44" fill="none" stroke="#000000" stroke-width="1"/>
	<path d="M514 44 C568 76 616 76 658 44" fill="none" stroke="#000000" stroke-width="1"/>
	<g>
		<path d="M685 18 a14 14 90 0 1 14 14 V44 h-82 V32 a14 14 90 0 1 14 -14" fill="#FFFFFF" stroke="#FFFFFF" stroke-width="0"/>
		<path d="M699 44 v12 a14 14 90 0 1 -14 14 H631 a14 14 90 0 1 -14 -14 V44 H82" fill="#FFFFFF" stroke="#FFFFFF" stroke-width="0"/>
		<rect x="617" y="18" width="82" height="52" fill="none" rx="14" stroke="#000000" stroke-width="1.5"/>
		<line x1="617" y1="44" x2="699" y2="44" stroke="#000000" stroke-width="1"/>
		<text x="624" y="36.6" fill="#000000" font-family="Courier New" font-size="14">COMPOSER</text>
		<text x="624" y="62.6" fill="#000000" font-family="Courier New" font-size="14">quantité</text>
	</g>
	<text x="579" y="37" fill="#000000" font-family="Courier New" font-size="12">0,N</text>
	<text x="579" y="59" fill="#000000" font-family="Courier New" font-size="12">0,N</text>
</g>

<!-- Association DF0 -->
<g>
	<line x1="82" y1="44" x2="82" y2="138" stroke="#000000" stroke-width="1"/>
	<line x1="229" y1="138" x2="82" y2="138" stroke="#000000" stroke-width="1"/>
	<g>
		<circle cx="82" cy="138" r="16" stroke="#000000" stroke-width="1.5" fill="#FFFFFF"/>
		<text x="73" y="143" fill="#000000" font-family="Courier New" font-size="14">DF</text>
	</g>
	<text x="87" y="95" fill="#000000" font-family="Courier New" font-size="12">1,1</text>
	<line x1="87" y1="94" x2="110" y2="94" stroke="#000000" stroke-width="1"/>
	<text x="149" y="154" fill="#000000" font-family="Courier New" font-size="12">0,N</text>
</g>

<!-- Association FOURNIR -->
<g>
	<line x1="366" y1="138" x2="514" y2="138" stroke="#000000" stroke-width="1"/>
	<line x1="514" y1="44" x2="514" y2="138" stroke="#000000" stroke-width="1"/>
	<line x1="514" y1="232" x2="514" y2="138" stroke="#000000" stroke-width="1"/>
	<g>
		<path d="M554 112 a14 14 90 0 1 14 14 V138 h-108 V126 a14 14 90 0 1 14 -14" fill="#FFFFFF" stroke="#FFFFFF" stroke-width="0"/>
		<path d="M568 138 v12 a14 14 90 0 1 -14 14 H474 a14 14 90 0 1 -14 -14 V138 H108" fill="#FFFFFF" stroke="#FFFFFF" stroke-width="0"/>
		<rect x="460" y="112" width="108" height="52" fill="none" rx="14" stroke="#000000" stroke-width="1.5"/>
		<line x1="460" y1="138" x2="568" y2="138" stroke="#000000" stroke-width="1"/>
		<text x="484" y="130.6" fill="#000000" font-family="Courier New" font-size="14">FOURNIR</text>
		<text x="467" y="156.6" fill="#000000" font-family="Courier New" font-size="14">qté fournie</text>
	</g>
	<text x="423" y="154" fill="#000000" font-family="Courier New" font-size="12">1,N</text>
	<text x="519" y="95" fill="#000000" font-family="Courier New" font-size="12">1,N</text>
	<text x="519" y="189" fill="#000000" font-family="Courier New" font-size="12">1,N</text>
</g>

<!-- Association EMPLOYER -->
<g>
	<line x1="229" y1="138" x2="229" y2="232" stroke="#000000" stroke-width="1"/>
	<line x1="82" y1="232" x2="229" y2="232" stroke="#000000" stroke-width="1"/>
	<g>
		<path d="M256 206 a14 14 90 0 1 14 14 V232 h-82 V220 a14 14 90 0 1 14 -14" fill="#FFFFFF" stroke="#FFFFFF" stroke-width="0"/>
		<path d="M270 232 v12 a14 14 90 0 1 -14 14 H202 a14 14 90 0 1 -14 -14 V232 H82" fill="#FFFFFF" stroke="#FFFFFF" stroke-width="0"/>
		<rect x="188" y="206" width="82" height="52" fill="none" rx="14" stroke="#000000" stroke-width="1.5"/>
		<line x1="188" y1="232" x2="270" y2="232" stroke="#000000" stroke-width="1"/>
		<text x="195" y="224.6" fill="#000000" font-family="Courier New" font-size="14">EMPLOYER</text>
	</g>
	<text x="201" y="189" fill="#000000" font-family="Courier New" font-size="12">1,1</text>
	<text x="160" y="248" fill="#000000" font-family="Courier New" font-size="12">1,N</text>
</g>

<!-- Association TRAVAILLER -->
<g>
	<line x1="229" y1="138" x2="366" y2="232" stroke="#000000" stroke-width="1"/>
	<line x1="366" y1="138" x2="366" y2="232" stroke="#000000" stroke-width="1"/>
	<g>
		<path d="M402 206 a14 14 90 0 1 14 14 V232 h-100 V220 a14 14 90 0 1 14 -14" fill="#FFFFFF" stroke="#FFFFFF" stroke-width="0"/>
		<path d="M416 232 v12 a14 14 90 0 1 -14 14 H330 a14 14 90 0 1 -14 -14 V232 H100" fill="#FFFFFF" stroke="#FFFFFF" stroke-width="0"/>
		<rect x="316" y="206" width="100" height="52" fill="none" rx="14" stroke="#000000" stroke-width="1.5"/>
		<line x1="316" y1="232" x2="416" y2="232" stroke="#000000" stroke-width="1"/>
		<text x="324" y="224.6" fill="#000000" font-family="Courier New" font-size="14">TRAVAILLER</text>
	</g>
	<text x="257.25" y="189" fill="#000000" font-family="Courier New" font-size="12">0,N</text>
	<text x="371" y="189" fill="#000000" font-family="Courier New" font-size="12">1,N</text>
</g>

<!-- Association CONTROLER -->
<g>
	<path d="M514 232 C574.67 200 622.67 200 658 232" fill="none" stroke="#000000" stroke-width="1"/>
	<polygon points="611.99 209.34 599.16 213.27 604.1 208.02 601.15 201.44" fill="#000000" stroke-width="0"/>
	<path d="M514 232 C574.67 264 622.67 264 658 232" fill="none" stroke="#000000" stroke-width="1"/>
	<g>
		<path d="M690 206 a14 14 90 0 1 14 14 V232 h-92 V220 a14 14 90 0 1 14 -14" fill="#FFFFFF" stroke="#FFFFFF" stroke-width="0"/>
		<path d="M704 232 v12 a14 14 90 0 1 -14 14 H626 a14 14 90 0 1 -14 -14 V232 H92" fill="#FFFFFF" stroke="#FFFFFF" stroke-width="0"/>
		<rect x="612" y="206" width="92" height="52" fill="none" rx="14" stroke="#000000" stroke-width="1.5"/>
		<line x1="612" y1="232" x2="704" y2="232" stroke="#000000" stroke-width="1"/>
		<text x="620" y="224.6" fill="#000000" font-family="Courier New" font-size="14">CONTRÔLER</text>
	</g>
	<text x="584" y="225" fill="#000000" font-family="Courier New" font-size="12">0,N</text>
	<text x="584" y="247" fill="#000000" font-family="Courier New" font-size="12">0,1</text>
</g>

<!-- Entity AYANT_DROIT -->
<g>
	<g>
		<rect x="13" y="9" width="138" height="26" fill="#FFFFFF" stroke="none" stroke-width="0" opacity="1"/>
		<rect x="13" y="35" width="138" height="44" fill="#FFFFFF" stroke="none" stroke-width="0" opacity="1"/>
		<rect x="13" y="9" width="138" height="70" fill="none" stroke="#000000" stroke-width="1.5" opacity="1"/>
		<line x1="13" y1="35" x2="151" y2="35" stroke="#000000" stroke-width="1"/>
	</g>
	<text x="35" y="27.6" fill="#000000" font-family="Courier New" font-size="14">AYANT&#45;DROIT</text>
	<text x="18" y="53.6" fill="#000000" font-family="Courier New" font-size="14">nom ayant&#45;droit</text>
	<line x1="18" y1="56" x2="145" y2="56" stroke="#000000" stroke-width="1" stroke-dasharray="4"/>
	<text x="18" y="71.6" fill="#000000" font-family="Courier New" font-size="14">lien</text>
</g>

<!-- Entity PIECE -->
<g>
	<g>
		<rect x="454" y="9" width="120" height="26" fill="#FFFFFF" stroke="none" stroke-width="0" opacity="1"/>
		<rect x="454" y="35" width="120" height="44" fill="#FFFFFF" stroke="none" stroke-width="0" opacity="1"/>
		<rect x="454" y="9" width="120" height="70" fill="none" stroke="#000000" stroke-width="1.5" opacity="1"/>
		<line x1="454" y1="35" x2="574" y2="35" stroke="#000000" stroke-width="1"/>
	</g>
	<text x="493" y="27.6" fill="#000000" font-family="Courier New" font-size="14">PIÈCE</text>
	<text x="459" y="53.6" fill="#000000" font-family="Courier New" font-size="14">réf. pièce</text>
	<line x1="459" y1="56" x2="544" y2="56" stroke="#000000" stroke-width="1"/>
	<text x="459" y="71.6" fill="#000000" font-family="Courier New" font-size="14">libellé pièce</text>
</g>

<!-- Entity EMPLOYE -->
<g>
	<g>
		<rect x="177" y="103" width="104" height="26" fill="#FFFFFF" stroke="none" stroke-width="0" opacity="1"/>
		<rect x="177" y="129" width="104" height="44" fill="#FFFFFF" stroke="none" stroke-width="0" opacity="1"/>
		<rect x="177" y="103" width="104" height="70" fill="none" stroke="#000000" stroke-width="1.5" opacity="1"/>
		<line x1="177" y1="129" x2="281" y2="129" stroke="#000000" stroke-width="1"/>
	</g>
	<text x="199" y="121.6" fill="#000000" font-family="Courier New" font-size="14">EMPLOYÉ</text>
	<text x="182" y="147.6" fill="#000000" font-family="Courier New" font-size="14">matricule</text>
	<line x1="182" y1="150" x2="259" y2="150" stroke="#000000" stroke-width="1"/>
	<text x="182" y="165.6" fill="#000000" font-family="Courier New" font-size="14">nom employé</text>
</g>

<!-- Entity PROJET -->
<g>
	<g>
		<rect x="314" y="103" width="104" height="26" fill="#FFFFFF" stroke="none" stroke-width="0" opacity="1"/>
		<rect x="314" y="129" width="104" height="44" fill="#FFFFFF" stroke="none" stroke-width="0" opacity="1"/>
		<rect x="314" y="103" width="104" height="70" fill="none" stroke="#000000" stroke-width="1.5" opacity="1"/>
		<line x1="314" y1="129" x2="418" y2="129" stroke="#000000" stroke-width="1"/>
	</g>
	<text x="340" y="121.6" fill="#000000" font-family="Courier New" font-size="14">PROJET</text>
	<text x="319" y="147.6" fill="#000000" font-family="Courier New" font-size="14">num. projet</text>
	<line x1="319" y1="150" x2="413" y2="150" stroke="#000000" stroke-width="1"/>
	<text x="319" y="165.6" fill="#000000" font-family="Courier New" font-size="14">nom projet</text>
</g>

<!-- Entity DEPARTEMENT -->
<g>
	<g>
		<rect x="9" y="197" width="146" height="26" fill="#FFFFFF" stroke="none" stroke-width="0" opacity="1"/>
		<rect x="9" y="223" width="146" height="44" fill="#FFFFFF" stroke="none" stroke-width="0" opacity="1"/>
		<rect x="9" y="197" width="146" height="70" fill="none" stroke="#000000" stroke-width="1.5" opacity="1"/>
		<line x1="9" y1="223" x2="155" y2="223" stroke="#000000" stroke-width="1"/>
	</g>
	<text x="35" y="215.6" fill="#000000" font-family="Courier New" font-size="14">DÉPARTEMENT</text>
	<text x="14" y="241.6" fill="#000000" font-family="Courier New" font-size="14">num. département</text>
	<line x1="14" y1="244" x2="150" y2="244" stroke="#000000" stroke-width="1"/>
	<text x="14" y="259.6" fill="#000000" font-family="Courier New" font-size="14">nom département</text>
</g>

<!-- Entity SOCIETE -->
<g>
	<g>
		<rect x="449" y="197" width="130" height="26" fill="#FFFFFF" stroke="none" stroke-width="0" opacity="1"/>
		<rect x="449" y="223" width="130" height="44" fill="#FFFFFF" stroke="none" stroke-width="0" opacity="1"/>
		<rect x="449" y="197" width="130" height="70" fill="none" stroke="#000000" stroke-width="1.5" opacity="1"/>
		<line x1="449" y1="223" x2="579" y2="223" stroke="#000000" stroke-width="1"/>
	</g>
	<text x="484" y="215.6" fill="#000000" font-family="Courier New" font-size="14">SOCIÉTÉ</text>
	<text x="454" y="241.6" fill="#000000" font-family="Courier New" font-size="14">num. société</text>
	<line x1="454" y1="244" x2="556" y2="244" stroke="#000000" stroke-width="1"/>
	<text x="454" y="259.6" fill="#000000" font-family="Courier New" font-size="14">raison sociale</text>
</g>
</svg>